# xmcd
#
# Track frame offsets:
#	150
#	17579
#	28153
#	45930
#	67262
#	81252
#	100903
#	119056
#	131078
#	148155
#	163905
#	179806
#	193679
# Disc length: 2776 seconds
# Revision: 1
# Processed by: cddbd v1.5.1PL2 Copyright (c) Steve Scherf et al.
#
# Submitted via: libkcddb 0.21
#
DISCID=c70ad60d
DTITLE=Various Artist - Carnival in Rio
DYEAR=2006
DGENRE=Folk
TTITLE0=Brazil nao seremos jamais, ou seremos
TTITLE1=A danca do cafune
TTITLE2=Pernambuco o leao do norte
TTITLE3=Brasiliana
TTITLE4=O amanha
TTITLE5=Tristeza
TTITLE6=Galinha da angola
TTITLE7=Olha a rima
TTITLE8=Propagas
TTITLE9=Protecao
TTITLE10=Chora viola chora - Tempestade do amor
TTITLE11=Vou festejar - Marcando bobeira
TTITLE12=Acalentava
EXTD=
EXTT0=
EXTT1=
EXTT2=
EXTT3=
EXTT4=
EXTT5=
EXTT6=
EXTT7=
EXTT8=
EXTT9=
EXTT10=
EXTT11=
EXTT12=
PLAYORDER=
